<svg width="65" height="29" viewBox="0 0 65 29" fill="none" xmlns="http://www.w3.org/2000/svg">
<path d="M0 23.3217C0 23.7835 0.114829 24.1684 0.344488 24.4763C0.781732 25.0746 1.27968 25.5945 1.83832 26.036L4.87895 23.1154C5.25106 23.3866 5.62881 23.6125 6.01217 23.7932C6.85425 24.178 7.8622 24.3704 9.03601 24.3704C11.0264 24.2935 12.0216 23.5366 12.0216 22.0998C12.0216 21.897 11.996 21.7075 11.9448 21.5314C11.9941 21.7048 12.0188 21.8911 12.0188 22.0902C12.0188 23.527 11.0236 24.2838 9.03324 24.3608C7.85943 24.3608 6.85149 24.1684 6.0094 23.7835C5.19284 23.3987 4.40179 22.8086 3.63626 22.0132C3.15143 21.5258 2.64108 21.282 2.10521 21.282C1.72244 21.282 1.35243 21.3975 0.995188 21.6284C0.331729 22.0902 0 22.6547 0 23.3217Z" fill="white"/>
<path d="M8.66776 19.4762L11.969 16.3053C12.2881 16.4268 12.5864 16.5496 12.8637 16.6735C13.7823 17.084 14.5606 17.7126 15.1985 18.5592C15.5149 18.9792 15.7529 19.4654 15.9124 20.0179C15.7529 19.4614 15.514 18.972 15.1958 18.5496C14.5578 17.703 13.7795 17.0744 12.8609 16.6639C11.9423 16.2534 10.794 15.8557 9.41601 15.4708C8.42082 15.1886 7.64253 14.9577 7.08114 14.7781C6.54527 14.5729 6.09872 14.3035 5.74147 13.9699C5.38422 13.6108 5.2056 13.1489 5.2056 12.5845C5.2056 11.1734 6.17527 10.4678 8.11461 10.4678C9.03324 10.4678 9.84981 10.6346 10.5643 10.9681C11.3043 11.3017 11.904 11.7507 12.3633 12.3151C12.7205 12.6743 13.1799 12.8539 13.7412 12.8539C14.2006 12.8539 14.6088 12.7128 14.9661 12.4306C15.4509 12.0457 15.6933 11.5582 15.6933 10.9681C15.6933 10.455 15.5275 9.99319 15.1958 9.58269C14.4557 8.6334 13.435 7.91502 12.1336 7.42754C10.8322 6.94007 9.53084 6.69634 8.22944 6.69634C6.95356 6.69634 5.74147 6.9529 4.59317 7.46603C3.4704 7.9535 2.55176 8.65905 1.83727 9.58269C1.14829 10.4807 0.803806 11.5454 0.803806 12.7769C0.803806 14.188 1.13553 15.3169 1.79899 16.1636C2.48797 16.9846 3.29178 17.6003 4.21041 18.0108C5.15456 18.4213 6.36665 18.8318 7.84667 19.2423C8.13607 19.3203 8.40976 19.3982 8.66776 19.4762Z" fill="white"/>
<path d="M19.8286 26.0604C19.7637 25.8332 19.7313 25.5905 19.7313 25.3325V9.43837C19.7313 8.7713 19.9482 8.21969 20.382 7.78353C20.8158 7.32171 21.3644 7.09081 22.0279 7.09081C22.6913 7.09081 23.24 7.32171 23.6738 7.78353C23.9399 8.05109 24.1244 8.36209 24.2272 8.71655C24.1249 8.3581 23.9395 8.04388 23.671 7.77391C23.2372 7.31209 22.6886 7.08118 22.0251 7.08118C21.3617 7.08118 20.813 7.31209 20.3792 7.77391C19.9454 8.21007 19.7285 8.76168 19.7285 9.42875V25.3229C19.7285 25.5845 19.7619 25.8304 19.8286 26.0604Z" fill="white"/>
<path d="M24.3396 1.12614C24.252 0.824534 24.1066 0.593472 23.9034 0.432955C23.5462 0.150733 22.921 0.00962251 22.0279 0.00962251C21.1858 0.00962251 20.5734 0.150733 20.1906 0.432955C19.8078 0.715176 19.6165 1.21548 19.6165 1.93386V2.66507C19.6165 2.97052 19.6488 3.23654 19.7133 3.46314C19.6469 3.23446 19.6137 2.96523 19.6137 2.65544V1.92423C19.6137 1.20585 19.8051 0.705553 20.1878 0.423333C20.5706 0.141111 21.183 0 22.0251 0C22.9182 0 23.5434 0.141111 23.9007 0.423333C24.106 0.585552 24.2523 0.819822 24.3396 1.12614Z" fill="white"/>
<path d="M27.5936 23.9442C27.5405 23.7577 27.514 23.5534 27.514 23.3313C27.514 22.6643 27.8457 22.0998 28.5092 21.638C28.8664 21.4071 29.2364 21.2917 29.6192 21.2917C30.155 21.2917 30.6654 21.5354 31.1502 22.0229C31.9158 22.8182 32.7068 23.4083 33.5234 23.7932C34.3655 24.178 35.3734 24.3704 36.5472 24.3704C38.5376 24.2935 39.5328 23.5366 39.5328 22.0998C39.5328 21.8971 39.5072 21.7077 39.456 21.5316C39.5053 21.7049 39.53 21.8911 39.53 22.0902C39.53 23.527 38.5348 24.2838 36.5444 24.3608C35.3706 24.3608 34.3627 24.1684 33.5206 23.7835C32.704 23.3987 31.913 22.8086 31.1475 22.0132C30.6626 21.5258 30.1523 21.282 29.6164 21.282C29.2336 21.282 28.8636 21.3975 28.5064 21.6284C27.8429 22.0902 27.5112 22.6547 27.5112 23.3217C27.5112 23.5476 27.5387 23.7552 27.5936 23.9442Z" fill="white"/>
<path d="M28.5569 14.6581C28.3975 14.102 28.3178 13.4782 28.3178 12.7865C28.3178 12.1438 28.4116 11.5464 28.5993 10.9945L43.0048 24.5297C43.4442 23.7438 43.6639 22.8665 43.6639 21.8978C43.6639 20.5123 43.3449 19.3963 42.707 18.5496C42.069 17.703 41.2907 17.0744 40.3721 16.6639C39.4535 16.2534 38.3052 15.8557 36.9272 15.4708C35.932 15.1886 35.1537 14.9577 34.5923 14.7781C34.0565 14.5729 33.6099 14.3035 33.2527 13.9699C32.8954 13.6108 32.7168 13.1489 32.7168 12.5845C32.7168 11.1734 33.6865 10.4678 35.6258 10.4678C36.5444 10.4678 37.361 10.6346 38.0755 10.9681C38.8155 11.3017 39.4152 11.7507 39.8745 12.3151C40.2317 12.6743 40.6911 12.8539 41.2524 12.8539C41.7118 12.8539 42.12 12.7128 42.4773 12.4306C42.9621 12.0457 43.2045 11.5582 43.2045 10.9681C43.2045 10.455 43.0387 9.99319 42.707 9.58269C41.9669 8.6334 40.9462 7.91502 39.6448 7.42754C38.3434 6.94007 37.042 6.69634 35.7406 6.69634C34.4648 6.69634 33.2527 6.9529 32.1044 7.46603C30.9816 7.9535 30.063 8.65905 29.3485 9.58269C28.6595 10.4807 28.315 11.5454 28.315 12.7769C28.315 13.4726 28.3956 14.0996 28.5569 14.6581Z" fill="white"/>
<path d="M64.3493 7.77391C63.9155 7.31209 63.3669 7.08118 62.7034 7.08118C62.04 7.08118 61.4913 7.31209 61.0575 7.77391C60.6237 8.21007 60.4068 8.76168 60.4068 9.42875V19.2039C60.4068 20.7689 60.0623 21.9363 59.3734 22.706C58.6844 23.45 57.6382 23.822 56.2347 23.822C54.8567 23.822 53.8233 23.45 53.1343 22.706C52.4453 21.9363 52.1008 20.7689 52.1008 19.2039V9.42875C52.1008 8.76168 51.8839 8.21007 51.4501 7.77391C51.0163 7.31209 50.4677 7.08118 49.8042 7.08118C49.1408 7.08118 48.5922 7.31209 48.1584 7.77391C47.7246 8.21007 47.5077 8.76168 47.5077 9.42875V19.2039C47.5077 21.9748 48.2604 24.1427 49.766 25.7078C51.2715 27.2728 53.4277 28.0553 56.2347 28.0553C59.0416 28.0553 61.1979 27.2728 62.7034 25.7078C64.2345 24.1427 65 21.9748 65 19.2039V9.42875C65 8.76168 64.7831 8.21007 64.3493 7.77391Z" fill="white"/>
<path d="M28.6256 10.9849L43.0364 24.5251C42.905 24.7607 42.7538 24.9882 42.5829 25.2075C41.8429 26.1311 40.886 26.8367 39.7121 27.3241C38.5639 27.8116 37.3773 28.0553 36.1524 28.0553C34.4683 28.0553 32.8989 27.7731 31.4444 27.2087C29.9899 26.6442 28.8034 25.7334 27.8847 24.4763C27.6551 24.1684 27.5402 23.7835 27.5402 23.3217C27.5402 22.6546 27.872 22.0902 28.5354 21.6284C28.8927 21.3975 29.2627 21.282 29.6454 21.282C30.1813 21.282 30.6917 21.5258 31.1765 22.0132C31.942 22.8086 32.7331 23.3987 33.5496 23.7835C34.3917 24.1684 35.3997 24.3608 36.5735 24.3608C38.5639 24.2838 39.559 23.527 39.559 22.0902C39.559 21.3462 39.2146 20.7817 38.5256 20.3969C37.8621 20.012 36.8159 19.6272 35.3869 19.2423C33.9069 18.8318 32.6948 18.4213 31.7506 18.0108C30.832 17.6003 30.0282 16.9846 29.3392 16.1636C28.6758 15.3169 28.344 14.188 28.344 12.7769C28.344 12.1341 28.4379 11.5368 28.6256 10.9849Z" fill="white"/>
<path d="M3.93324 27.2087C3.16814 26.9118 2.47718 26.519 1.86035 26.0304L4.90522 23.1058C5.27734 23.3769 5.65508 23.6029 6.03844 23.7835C6.88052 24.1684 7.88847 24.3608 9.06228 24.3608C11.0527 24.2838 12.0478 23.527 12.0478 22.0902C12.0478 21.3462 11.7034 20.7817 11.0144 20.3969C10.4836 20.089 9.70783 19.7811 8.68707 19.4732L11.9953 16.2956C12.3144 16.4172 12.6126 16.54 12.8899 16.6639C13.8086 17.0744 14.5868 17.703 15.2248 18.5496C15.8627 19.3963 16.1817 20.5123 16.1817 21.8978C16.1817 23.155 15.8117 24.2582 15.0717 25.2075C14.3317 26.1311 13.3748 26.8367 12.2009 27.3241C11.0527 27.8116 9.86609 28.0553 8.64124 28.0553C6.95708 28.0553 5.38774 27.7731 3.93324 27.2087Z" fill="white"/>
<path d="M24.3507 25.3229C24.3507 25.99 24.1338 26.5544 23.7 27.0162C23.2662 27.4524 22.7176 27.6705 22.0541 27.6705C21.3907 27.6705 20.8421 27.4524 20.4083 27.0162C19.9745 26.5544 19.7576 25.99 19.7576 25.3229V9.42875C19.7576 8.76168 19.9745 8.21007 20.4083 7.77391C20.8421 7.31209 21.3907 7.08118 22.0541 7.08118C22.7176 7.08118 23.2662 7.31209 23.7 7.77391C24.1338 8.21007 24.3507 8.76168 24.3507 9.42875V25.3229Z" fill="white"/>
<path d="M22.0159 4.57968C21.1483 4.57968 20.5358 4.43857 20.1786 4.15635C19.8214 3.87413 19.6427 3.37382 19.6427 2.65544V1.92423C19.6427 1.20585 19.8341 0.705553 20.2169 0.423333C20.5996 0.141111 21.2121 0 22.0541 0C22.9473 0 23.5724 0.141111 23.9297 0.423333C24.2869 0.705553 24.4656 1.20585 24.4656 1.92423V2.65544C24.4656 3.39948 24.2742 3.91261 23.8914 4.19483C23.5342 4.4514 22.909 4.57968 22.0159 4.57968Z" fill="white"/>
</svg>
