<svg width="97" height="43" viewBox="0 0 97 43" fill="none" xmlns="http://www.w3.org/2000/svg">
<path d="M0 35.4472C0 36.1326 0.171361 36.7038 0.514082 37.1608C1.16658 38.0489 1.90967 38.8205 2.74334 39.4757L7.28089 35.1409C7.8362 35.5434 8.39991 35.8787 8.97201 36.1469C10.2287 36.7181 11.7328 37.0037 13.4845 37.0037C16.4548 36.8894 17.9399 35.7661 17.9399 33.6336C17.9399 33.3325 17.9017 33.0513 17.8253 32.7899C17.8989 33.0473 17.9358 33.3237 17.9358 33.6193C17.9358 35.7518 16.4506 36.8752 13.4804 36.9894C11.7287 36.9894 10.2245 36.7038 8.96788 36.1326C7.74931 35.5614 6.56883 34.6855 5.42642 33.5051C4.7029 32.7815 3.9413 32.4198 3.14161 32.4198C2.57041 32.4198 2.01825 32.5911 1.48513 32.9339C0.495042 33.6193 0 34.4571 0 35.4472Z" fill="#B50182"/>
<path d="M12.935 29.7394L17.8614 25.0331C18.3377 25.2135 18.7827 25.3957 19.1965 25.5796C20.5674 26.1889 21.7289 27.1219 22.6809 28.3785C23.1531 29.0018 23.5082 29.7235 23.7461 30.5435C23.5081 29.7176 23.1517 28.9912 22.6767 28.3642C21.7247 27.1076 20.5633 26.1746 19.1924 25.5653C17.8215 24.9561 16.1079 24.3658 14.0516 23.7946C12.5665 23.3757 11.405 23.033 10.5672 22.7665C9.76756 22.4618 9.10116 22.062 8.56804 21.5669C8.03492 21.0338 7.76835 20.3484 7.76835 19.5106C7.76835 17.4162 9.2154 16.369 12.1095 16.369C13.4804 16.369 14.6989 16.6165 15.7652 17.1115C16.8695 17.6066 17.7644 18.273 18.4498 19.1108C18.983 19.6439 19.6684 19.9104 20.5062 19.9104C21.1916 19.9104 21.8009 19.701 22.334 19.2821C23.0575 18.7109 23.4193 17.9874 23.4193 17.1115C23.4193 16.3499 23.1718 15.6645 22.6767 15.0552C21.5724 13.6463 20.0492 12.58 18.1071 11.8565C16.165 11.133 14.2229 10.7712 12.2809 10.7712C10.3768 10.7712 8.56804 11.152 6.85443 11.9136C5.1789 12.6371 3.80802 13.6843 2.74177 15.0552C1.71361 16.388 1.19953 17.9684 1.19953 19.7962C1.19953 21.8906 1.69457 23.5661 2.68465 24.8228C3.71282 26.0413 4.91234 26.9553 6.28323 27.5646C7.69219 28.1738 9.501 28.7831 11.7097 29.3924C12.1415 29.5081 12.55 29.6238 12.935 29.7394Z" fill="#B50182"/>
<path d="M29.5904 39.5121C29.4936 39.1747 29.4452 38.8146 29.4452 38.4317V14.841C29.4452 13.8509 29.7688 13.0322 30.4162 12.3849C31.0636 11.6994 31.8823 11.3567 32.8724 11.3567C33.8625 11.3567 34.6812 11.6994 35.3285 12.3849C35.7257 12.782 36.001 13.2436 36.1545 13.7697C36.0018 13.2376 35.7251 12.7713 35.3244 12.3706C34.677 11.6851 33.8583 11.3424 32.8682 11.3424C31.8782 11.3424 31.0594 11.6851 30.4121 12.3706C29.7647 13.0179 29.441 13.8367 29.441 14.8267V38.4174C29.441 38.8057 29.4908 39.1706 29.5904 39.5121Z" fill="#B50182"/>
<path d="M36.3222 2.50373C36.1915 2.05608 35.9745 1.71313 35.6713 1.47488C35.1381 1.056 34.2052 0.846557 32.8724 0.846557C31.6157 0.846557 30.7018 1.056 30.1306 1.47488C29.5594 1.89376 29.2738 2.63633 29.2738 3.70257V4.78786C29.2738 5.24121 29.322 5.63605 29.4184 5.97238C29.3192 5.63297 29.2697 5.23336 29.2697 4.77357V3.68829C29.2697 2.62204 29.5553 1.87948 30.1265 1.4606C30.6977 1.04172 31.6116 0.832275 32.8682 0.832275C34.201 0.832275 35.134 1.04172 35.6671 1.4606C35.9736 1.70137 36.1919 2.04908 36.3222 2.50373Z" fill="#B50182"/>
<path d="M41.1782 36.3711C41.0989 36.0943 41.0593 35.7911 41.0593 35.4614C41.0593 34.4713 41.5544 33.6336 42.5444 32.9481C43.0776 32.6054 43.6297 32.4341 44.2009 32.4341C45.0006 32.4341 45.7622 32.7958 46.4857 33.5193C47.6281 34.6998 48.8086 35.5757 50.0272 36.1469C51.2838 36.7181 52.788 37.0037 54.5397 37.0037C57.5099 36.8894 58.9951 35.7661 58.9951 33.6336C58.9951 33.3327 58.9569 33.0515 58.8805 32.7902C58.9541 33.0475 58.9909 33.3238 58.9909 33.6193C58.9909 35.7518 57.5058 36.8752 54.5356 36.9894C52.7839 36.9894 51.2797 36.7038 50.0231 36.1326C48.8045 35.5614 47.624 34.6855 46.4816 33.5051C45.7581 32.7815 44.9965 32.4198 44.1968 32.4198C43.6256 32.4198 43.0734 32.5911 42.5403 32.9339C41.5502 33.6193 41.0552 34.4571 41.0552 35.4472C41.0552 35.7825 41.0962 36.0905 41.1782 36.3711Z" fill="#B50182"/>
<path d="M42.6156 22.5883C42.3778 21.763 42.2588 20.8371 42.2588 19.8105C42.2588 18.8565 42.3989 17.9699 42.679 17.1507L64.1764 37.24C64.8321 36.0736 65.1599 34.7715 65.1599 33.3337C65.1599 31.2774 64.6839 29.6209 63.7319 28.3642C62.7799 27.1076 61.6185 26.1746 60.2476 25.5653C58.8767 24.9561 57.1631 24.3658 55.1068 23.7946C53.6216 23.3757 52.4602 23.033 51.6224 22.7665C50.8227 22.4618 50.1563 22.062 49.6232 21.5669C49.0901 21.0338 48.8235 20.3484 48.8235 19.5106C48.8235 17.4162 50.2706 16.369 53.1647 16.369C54.5356 16.369 55.7541 16.6165 56.8204 17.1115C57.9247 17.6066 58.8196 18.273 59.505 19.1108C60.0381 19.6439 60.7236 19.9104 61.5613 19.9104C62.2468 19.9104 62.8561 19.701 63.3892 19.2821C64.1127 18.7109 64.4745 17.9874 64.4745 17.1115C64.4745 16.3499 64.227 15.6645 63.7319 15.0552C62.6276 13.6463 61.1044 12.58 59.1623 11.8565C57.2202 11.133 55.2781 10.7712 53.336 10.7712C51.432 10.7712 49.6232 11.152 47.9096 11.9136C46.2341 12.6371 44.8632 13.6843 43.797 15.0552C42.7688 16.388 42.2547 17.9684 42.2547 19.7962C42.2547 20.8287 42.375 21.7594 42.6156 22.5883Z" fill="#B50182"/>
<path d="M96.0289 12.3706C95.3816 11.6851 94.5629 11.3424 93.5728 11.3424C92.5827 11.3424 91.764 11.6851 91.1166 12.3706C90.4692 13.0179 90.1456 13.8367 90.1456 14.8267V29.3353C90.1456 31.6582 89.6315 33.3908 88.6033 34.5332C87.5752 35.6376 86.0139 36.1897 83.9195 36.1897C81.8631 36.1897 80.3209 35.6376 79.2927 34.5332C78.2646 33.3908 77.7505 31.6582 77.7505 29.3353V14.8267C77.7505 13.8367 77.4268 13.0179 76.7794 12.3706C76.1321 11.6851 75.3133 11.3424 74.3233 11.3424C73.3332 11.3424 72.5145 11.6851 71.8671 12.3706C71.2197 13.0179 70.896 13.8367 70.896 14.8267V29.3353C70.896 33.4479 72.0194 36.6657 74.2661 38.9886C76.5129 41.3115 79.7306 42.4729 83.9195 42.4729C88.1083 42.4729 91.3261 41.3115 93.5728 38.9886C95.8576 36.6657 97 33.4479 97 29.3353V14.8267C97 13.8367 96.6763 13.0179 96.0289 12.3706Z" fill="#B50182"/>
<path d="M42.7188 17.1364L64.2242 37.2332C64.0281 37.583 63.8025 37.9206 63.5474 38.246C62.4431 39.6169 61.0151 40.6641 59.2634 41.3877C57.5498 42.1112 55.7791 42.4729 53.9512 42.4729C51.4379 42.4729 49.096 42.0541 46.9254 41.2163C44.7548 40.3785 42.9841 39.0267 41.6132 37.1608C41.2705 36.7038 41.0992 36.1326 41.0992 35.4471C41.0992 34.4571 41.5942 33.6193 42.5843 32.9339C43.1174 32.5911 43.6696 32.4198 44.2408 32.4198C45.0405 32.4198 45.8021 32.7815 46.5256 33.5051C47.668 34.6855 48.8485 35.5614 50.067 36.1326C51.3237 36.7038 52.8278 36.9894 54.5795 36.9894C57.5498 36.8752 59.0349 35.7518 59.0349 33.6193C59.0349 32.515 58.5208 31.6772 57.4927 31.106C56.5026 30.5348 54.9413 29.9636 52.8088 29.3924C50.6002 28.7831 48.7913 28.1738 47.3824 27.5646C46.0115 26.9553 44.812 26.0413 43.7838 24.8228C42.7937 23.5661 42.2987 21.8906 42.2987 19.7962C42.2987 18.8422 42.4387 17.9556 42.7188 17.1364Z" fill="#FFAB09"/>
<path d="M5.87024 41.2163C4.72848 40.7756 3.69735 40.1927 2.77686 39.4675L7.32074 35.1266C7.87605 35.5291 8.43975 35.8644 9.01185 36.1326C10.2685 36.7038 11.7727 36.9894 13.5244 36.9894C16.4946 36.8752 17.9797 35.7518 17.9797 33.6193C17.9797 32.515 17.4656 31.6772 16.4375 31.106C15.6454 30.649 14.4877 30.1921 12.9644 29.7351L17.9013 25.0188C18.3775 25.1992 18.8226 25.3814 19.2364 25.5653C20.6073 26.1746 21.7687 27.1076 22.7207 28.3642C23.6727 29.6209 24.1487 31.2774 24.1487 33.3337C24.1487 35.1996 23.5966 36.8371 22.4922 38.246C21.3879 39.6169 19.9599 40.6641 18.2082 41.3877C16.4946 42.1112 14.7239 42.4729 12.896 42.4729C10.3827 42.4729 8.04081 42.0541 5.87024 41.2163Z" fill="#FFAB09"/>
<path d="M36.3394 38.4174C36.3394 39.4075 36.0157 40.2452 35.3684 40.9307C34.721 41.5781 33.9023 41.9017 32.9122 41.9017C31.9221 41.9017 31.1034 41.5781 30.456 40.9307C29.8087 40.2452 29.485 39.4075 29.485 38.4174V14.8267C29.485 13.8367 29.8087 13.0179 30.456 12.3706C31.1034 11.6851 31.9221 11.3424 32.9122 11.3424C33.9023 11.3424 34.721 11.6851 35.3684 12.3706C36.0157 13.0179 36.3394 13.8367 36.3394 14.8267V38.4174Z" fill="#FFAB09"/>
<path d="M32.8551 7.62959C31.5604 7.62959 30.6464 7.42015 30.1133 7.00126C29.5802 6.58238 29.3136 5.83982 29.3136 4.77357V3.68829C29.3136 2.62204 29.5992 1.87948 30.1704 1.4606C30.7416 1.04172 31.6556 0.832275 32.9122 0.832275C34.245 0.832275 35.178 1.04172 35.7111 1.4606C36.2442 1.87948 36.5108 2.62204 36.5108 3.68829V4.77357C36.5108 5.8779 36.2252 6.6395 35.654 7.05838C35.1209 7.43919 34.1879 7.62959 32.8551 7.62959Z" fill="#FFAB09"/>
</svg>
