<svg width="1596" height="685" viewBox="0 0 1596 685" fill="none" xmlns="http://www.w3.org/2000/svg">
<path d="M0 569.424C0 580.7 2.81893 590.096 8.45679 597.613C19.1906 612.223 31.4146 624.917 45.1287 635.695L119.773 564.386C128.908 571.007 138.181 576.523 147.592 580.935C168.264 590.331 193.008 595.029 221.824 595.029C270.685 593.15 295.116 574.67 295.116 539.59C295.116 534.638 294.488 530.012 293.231 525.711C294.442 529.945 295.048 534.493 295.048 539.355C295.048 574.435 270.617 592.915 221.756 594.794C192.94 594.794 168.196 590.096 147.524 580.7C127.478 571.303 108.059 556.895 89.2661 537.476C77.364 525.574 64.8354 519.623 51.6804 519.623C42.284 519.623 33.2007 522.442 24.4307 528.08C8.14358 539.355 0 553.137 0 569.424Z" fill="#B50182"/>
<path d="M212.784 475.53L293.825 398.11C301.66 401.078 308.981 404.075 315.788 407.101C338.34 417.123 357.446 432.471 373.106 453.143C380.874 463.397 386.716 475.268 390.631 488.758C386.715 475.171 380.851 463.221 373.038 452.908C357.378 432.236 338.272 416.888 315.72 406.866C293.169 396.843 264.979 387.133 231.152 377.737C206.722 370.846 187.615 365.208 173.834 360.823C160.679 355.812 149.717 349.234 140.947 341.091C132.177 332.321 127.792 321.045 127.792 307.263C127.792 272.81 151.596 255.583 199.204 255.583C221.756 255.583 241.802 259.655 259.342 267.798C277.508 275.942 292.229 286.904 303.505 300.686C312.275 309.456 323.551 313.841 337.332 313.841C348.608 313.841 358.631 310.396 367.401 303.505C379.303 294.108 385.254 282.206 385.254 267.798C385.254 255.27 381.182 243.994 373.038 233.971C354.872 210.793 329.815 193.253 297.867 181.351C265.919 169.449 233.971 163.498 202.023 163.498C170.702 163.498 140.947 169.762 112.757 182.291C85.1943 194.193 62.6429 211.42 45.1029 233.971C28.1893 255.896 19.7325 281.893 19.7325 311.962C19.7325 346.415 27.8761 373.978 44.1632 394.65C61.0768 414.696 80.8093 429.73 103.361 439.753C126.539 449.776 156.294 459.799 192.627 469.822C199.731 471.725 206.45 473.628 212.784 475.53Z" fill="#B50182"/>
<path d="M486.77 636.293C485.177 630.743 484.381 624.819 484.381 618.52V230.448C484.381 214.16 489.705 200.692 500.355 190.043C511.004 178.767 524.472 173.129 540.759 173.129C557.046 173.129 570.515 178.767 581.164 190.043C587.697 196.576 592.226 204.169 594.751 212.823C592.239 204.072 587.688 196.4 581.096 189.808C570.447 178.532 556.978 172.894 540.691 172.894C524.404 172.894 510.936 178.532 500.287 189.808C489.637 200.457 484.313 213.925 484.313 230.213V618.285C484.313 624.673 485.132 630.676 486.77 636.293Z" fill="#B50182"/>
<path d="M597.51 27.496C595.359 20.1318 591.79 14.4902 586.802 10.5711C578.032 3.68031 562.684 0.234944 540.759 0.234944C520.087 0.234944 505.053 3.68031 495.656 10.5711C486.26 17.4618 481.562 29.6771 481.562 47.2171V65.0703C481.562 72.5282 482.355 79.0234 483.94 84.5561C482.309 78.9726 481.494 72.3991 481.494 64.8354V46.9822C481.494 29.4422 486.192 17.2268 495.588 10.3361C504.985 3.44537 520.019 0 540.691 0C562.616 0 577.964 3.44537 586.734 10.3361C591.775 14.2969 595.367 20.0168 597.51 27.496Z" fill="#B50182"/>
<path d="M677.393 584.623C676.089 580.07 675.437 575.082 675.437 569.659C675.437 553.372 683.58 539.59 699.867 528.314C708.637 522.677 717.721 519.858 727.117 519.858C740.272 519.858 752.801 525.809 764.703 537.711C783.496 557.13 802.915 571.538 822.961 580.935C843.633 590.331 868.377 595.029 897.192 595.029C946.054 593.15 970.485 574.67 970.485 539.59C970.485 534.64 969.857 530.015 968.601 525.716C969.811 529.949 970.417 534.495 970.417 539.355C970.417 574.435 945.986 592.915 897.124 594.794C868.309 594.794 843.565 590.096 822.893 580.7C802.847 571.303 783.428 556.895 764.635 537.476C752.733 525.574 740.204 519.623 727.049 519.623C717.653 519.623 708.569 522.442 699.799 528.08C683.512 539.355 675.369 553.137 675.369 569.424C675.369 574.94 676.043 580.007 677.393 584.623Z" fill="#B50182"/>
<path d="M701.039 357.892C697.126 344.316 695.169 329.084 695.169 312.197C695.169 296.503 697.473 281.918 702.081 268.442L1055.72 598.917C1066.51 579.729 1071.9 558.309 1071.9 534.657C1071.9 500.83 1064.07 473.58 1048.41 452.908C1032.75 432.236 1013.64 416.888 991.089 406.866C968.537 396.843 940.348 387.133 906.521 377.737C882.09 370.846 862.984 365.208 849.203 360.823C836.048 355.812 825.085 349.234 816.315 341.091C807.545 332.321 803.16 321.045 803.16 307.263C803.16 272.81 826.964 255.583 874.573 255.583C897.124 255.583 917.17 259.655 934.71 267.798C952.877 275.942 967.598 286.904 978.874 300.686C987.643 309.456 998.919 313.841 1012.7 313.841C1023.98 313.841 1034 310.396 1042.77 303.505C1054.67 294.108 1060.62 282.206 1060.62 267.798C1060.62 255.27 1056.55 243.994 1048.41 233.971C1030.24 210.793 1005.18 193.253 973.236 181.351C941.288 169.449 909.34 163.498 877.392 163.498C846.071 163.498 816.315 169.762 788.126 182.291C760.563 194.193 738.012 211.42 720.472 233.971C703.558 255.896 695.101 281.893 695.101 311.962C695.101 328.947 697.08 344.257 701.039 357.892Z" fill="#B50182"/>
<path d="M1579.7 189.808C1569.05 178.532 1555.58 172.894 1539.3 172.894C1523.01 172.894 1509.54 178.532 1498.89 189.808C1488.24 200.457 1482.92 213.925 1482.92 230.213V468.882C1482.92 507.094 1474.46 535.597 1457.55 554.39C1440.63 572.556 1414.95 581.639 1380.5 581.639C1346.67 581.639 1321.3 572.556 1304.39 554.39C1287.47 535.597 1279.02 507.094 1279.02 468.882V230.213C1279.02 213.925 1273.69 200.457 1263.04 189.808C1252.39 178.532 1238.92 172.894 1222.64 172.894C1206.35 172.894 1192.88 178.532 1182.23 189.808C1171.58 200.457 1166.26 213.925 1166.26 230.213V468.882C1166.26 536.536 1184.74 589.47 1221.7 627.682C1258.66 665.894 1311.59 685 1380.5 685C1449.4 685 1502.34 665.894 1539.3 627.682C1576.88 589.47 1595.68 536.536 1595.68 468.882V230.213C1595.68 213.925 1590.35 200.457 1579.7 189.808Z" fill="#B50182"/>
<path d="M702.733 268.208L1056.5 598.805C1053.28 604.559 1049.56 610.113 1045.37 615.466C1027.2 638.018 1003.71 655.245 974.896 667.147C946.706 679.049 917.578 685 887.509 685C846.165 685 807.639 678.109 771.933 664.328C736.226 650.546 707.097 628.308 684.546 597.613C678.908 590.096 676.089 580.7 676.089 569.424C676.089 553.137 684.233 539.355 700.52 528.08C709.29 522.442 718.373 519.623 727.77 519.623C740.925 519.623 753.453 525.574 765.355 537.476C784.148 556.895 803.568 571.303 823.613 580.7C844.285 590.096 869.029 594.794 897.845 594.794C946.706 592.915 971.137 574.435 971.137 539.355C971.137 521.189 962.68 507.407 945.767 498.011C929.48 488.615 903.796 479.218 868.716 469.822C832.383 459.799 802.628 449.776 779.45 439.753C756.899 429.73 737.166 414.696 720.252 394.65C703.965 373.978 695.822 346.415 695.822 311.962C695.822 296.268 698.126 281.683 702.733 268.208Z" fill="#FFAB09"/>
<path d="M96.5642 664.328C77.7819 657.079 60.8196 647.489 45.6772 635.56L120.425 564.151C129.56 570.772 138.833 576.288 148.245 580.7C168.917 590.096 193.661 594.794 222.476 594.794C271.338 592.915 295.769 574.435 295.769 539.355C295.769 521.189 287.312 507.407 270.398 498.011C257.368 490.494 238.324 482.976 213.265 475.459L294.478 397.875C302.312 400.843 309.633 403.84 316.441 406.866C338.992 416.888 358.098 432.236 373.759 452.908C389.42 473.58 397.25 500.83 397.25 534.657C397.25 565.352 388.167 592.289 370 615.466C351.834 638.018 328.343 655.245 299.527 667.147C271.338 679.049 242.209 685 212.14 685C170.796 685 132.271 678.109 96.5642 664.328Z" fill="#FFAB09"/>
<path d="M597.791 618.285C597.791 634.572 592.466 648.354 581.817 659.63C571.167 670.279 557.699 675.604 541.412 675.604C525.125 675.604 511.657 670.279 501.007 659.63C490.358 648.354 485.033 634.572 485.033 618.285V230.213C485.033 213.925 490.358 200.457 501.007 189.808C511.657 178.532 525.125 172.894 541.412 172.894C557.699 172.894 571.167 178.532 581.817 189.808C592.466 200.457 597.791 213.925 597.791 230.213V618.285Z" fill="#FFAB09"/>
<path d="M540.472 111.818C519.174 111.818 504.139 108.372 495.369 101.482C486.599 94.5908 482.214 82.3754 482.214 64.8354V46.9822C482.214 29.4422 486.913 17.2268 496.309 10.3361C505.705 3.44537 520.74 0 541.412 0C563.337 0 578.684 3.44537 587.454 10.3361C596.224 17.2268 600.609 29.4422 600.609 46.9822V64.8354C600.609 83.0018 595.911 95.5304 586.515 102.421C577.745 108.685 562.397 111.818 540.472 111.818Z" fill="#FFAB09"/>
</svg>
