<svg id="icons" xmlns="http://www.w3.org/2000/svg" viewBox="0 0 64 64"><title>girl-virtual-reality-glasses</title><g id="girl-virtual-reality-glasses"><path d="M55,55V24A23,23,0,0,0,9,24V54" fill="#f0d187"/><path d="M55,55V24A23,23,0,0,0,9,24V54" fill="none" stroke="#544f4b" stroke-miterlimit="10" stroke-width="2"/><path d="M58,63H6C5,49,25,47,25,47l7,3,7-2s20,1,19,15Z" fill="#fa8a8a"/><polygon points="21 48 25 47 31 51 27 56 21 48" fill="#ddd2ca"/><polygon points="43 48 39 47 33 51 37 56 43 48" fill="#ddd2ca"/><path d="M37,47.27C50.83,48.83,58,54.82,58,62v1" fill="none" stroke="#544f4b" stroke-miterlimit="10" stroke-width="2"/><path d="M27,47.25C12.42,48.74,6,54.78,6,62v1" fill="none" stroke="#544f4b" stroke-miterlimit="10" stroke-width="2"/><path d="M38,43v4l-.4.53a7,7,0,0,1-11.2,0L26,47V43" fill="#f7bea1"/><path d="M38,43v4l-.4.53a7,7,0,0,1-11.2,0L26,47V43" fill="none" stroke="#544f4b" stroke-miterlimit="10" stroke-width="2"/><path d="M16,22v4.45C16,36.14,23.16,44,32,44s16-7.86,16-17.55V22Z" fill="#ffd5bf"/><path d="M16,22v4.45C16,36.14,23.16,44,32,44s16-7.86,16-17.55V22Z" fill="none" stroke="#544f4b" stroke-miterlimit="10" stroke-width="2"/><rect x="15" y="18" width="34" height="14" rx="3" ry="3" fill="#7ccacb"/><rect x="17" y="20" width="30" height="10" rx="1" ry="1" fill="#5ca1a1"/><rect x="15" y="18" width="34" height="14" rx="3" ry="3" fill="none" stroke="#544f4b" stroke-linejoin="round" stroke-width="2"/><line x1="49" y1="22" x2="51" y2="22" fill="none" stroke="#544f4b" stroke-miterlimit="10" stroke-width="2"/><line x1="15" y1="22" x2="13" y2="22" fill="none" stroke="#544f4b" stroke-miterlimit="10" stroke-width="2"/><line x1="31" y1="22" x2="33" y2="22" fill="none" stroke="#7ccacb" stroke-miterlimit="10" stroke-width="2"/><line x1="35" y1="22" x2="37" y2="22" fill="none" stroke="#7ccacb" stroke-miterlimit="10" stroke-width="2"/><line x1="27" y1="22" x2="29" y2="22" fill="none" stroke="#7ccacb" stroke-miterlimit="10" stroke-width="2"/><line x1="31" y1="37" x2="33" y2="37" fill="none" stroke="#dd7a7a" stroke-miterlimit="10" stroke-width="2"/><polyline points="32 50 27 56 21 48" fill="none" stroke="#544f4b" stroke-miterlimit="10" stroke-width="2"/><polyline points="32 50 37 56 43 48" fill="none" stroke="#544f4b" stroke-miterlimit="10" stroke-width="2"/><line x1="18" y1="22" x2="22" y2="22" fill="none" stroke="#544f4b" stroke-miterlimit="10" stroke-width="2"/></g></svg>