<svg width="16" height="22" viewBox="0 0 16 22" fill="none" xmlns="http://www.w3.org/2000/svg">
<path d="M12.998 7.3406L8 13.5772L3.002 7.3406C2.9127 7.22895 2.79283 7.16644 2.668 7.16644C2.54317 7.16644 2.4233 7.22895 2.334 7.3406C2.29076 7.39483 2.25641 7.45956 2.23296 7.531C2.20951 7.60244 2.19743 7.67915 2.19743 7.75663C2.19743 7.83412 2.20951 7.91083 2.23296 7.98227C2.25641 8.05371 2.29076 8.11844 2.334 8.17267L7.651 14.8087C7.74437 14.9252 7.86961 14.9904 8 14.9904C8.13039 14.9904 8.25563 14.9252 8.349 14.8087L13.666 8.17395C13.7095 8.11968 13.7442 8.05479 13.7678 7.98311C13.7914 7.91144 13.8036 7.83443 13.8036 7.75663C13.8036 7.67884 13.7914 7.60183 13.7678 7.53016C13.7442 7.45848 13.7095 7.39359 13.666 7.33932C13.5767 7.22767 13.4568 7.16516 13.332 7.16516C13.2072 7.16516 13.0873 7.22767 12.998 7.33932V7.3406Z" fill="white"/>
</svg>
