<svg width="66" height="32" viewBox="0 0 66 32" fill="none" xmlns="http://www.w3.org/2000/svg">
<path d="M0 26.0673C0 26.5641 0.115003 26.9782 0.345008 27.3094C0.782911 27.9532 1.28161 28.5125 1.84109 28.9874L4.88631 25.8453C5.25899 26.137 5.6373 26.3801 6.02124 26.5745C6.86459 26.9885 7.87406 27.1955 9.04964 27.1955C11.043 27.1127 12.0397 26.2985 12.0397 24.7527C12.0397 24.5345 12.0141 24.3307 11.9628 24.1412C12.0122 24.3277 12.0369 24.5281 12.0369 24.7424C12.0369 26.2881 11.0402 27.1024 9.04687 27.1852C7.87129 27.1852 6.86182 26.9782 6.01847 26.5641C5.20067 26.1501 4.40843 25.5152 3.64175 24.6596C3.15618 24.1351 2.64506 23.8729 2.10838 23.8729C1.72504 23.8729 1.35447 23.9971 0.996689 24.2455C0.33223 24.7424 0 25.3496 0 26.0673Z" fill="white"/>
<path d="M8.68083 21.93L11.987 18.5186C12.3067 18.6494 12.6053 18.7815 12.8831 18.9148C13.8031 19.3564 14.5825 20.0327 15.2214 20.9436C15.5383 21.3954 15.7767 21.9185 15.9364 22.5129C15.7766 21.9142 15.5374 21.3876 15.2187 20.9332C14.5798 20.0223 13.8003 19.3461 12.8803 18.9044C11.9603 18.4628 10.8102 18.0349 9.43021 17.6209C8.43352 17.3173 7.65406 17.0689 7.09182 16.8756C6.55515 16.6548 6.10791 16.365 5.75013 16.0062C5.39234 15.6197 5.21345 15.1229 5.21345 14.5156C5.21345 12.9975 6.18458 12.2384 8.12685 12.2384C9.04687 12.2384 9.86466 12.4178 10.5802 12.7767C11.3214 13.1355 11.9219 13.6185 12.3819 14.2258C12.7397 14.6122 13.1997 14.8054 13.762 14.8054C14.222 14.8054 14.6309 14.6536 14.9887 14.35C15.4742 13.936 15.717 13.4115 15.717 12.7767C15.717 12.2246 15.5509 11.7278 15.2187 11.2861C14.4775 10.2648 13.4553 9.49195 12.1519 8.9675C10.8486 8.44305 9.54521 8.18083 8.24185 8.18083C6.96404 8.18083 5.75013 8.45686 4.6001 9.00891C3.47563 9.53335 2.55561 10.2924 1.84004 11.2861C1.15003 12.2522 0.805018 13.3977 0.805018 14.7226C0.805018 16.2408 1.13725 17.4553 1.80171 18.3662C2.49172 19.2495 3.29674 19.9119 4.21676 20.3536C5.16234 20.7952 6.37625 21.2368 7.85851 21.6785C8.14834 21.7623 8.42245 21.8462 8.68083 21.93Z" fill="white"/>
<path d="M19.8585 29.0137C19.7935 28.7692 19.7611 28.5082 19.7611 28.2306V11.1309C19.7611 10.4132 19.9783 9.81973 20.4127 9.35049C20.8472 8.85364 21.3966 8.60522 22.0611 8.60522C22.7256 8.60522 23.275 8.85364 23.7095 9.35049C23.976 9.63834 24.1608 9.97294 24.2638 10.3543C24.1613 9.96864 23.9756 9.63059 23.7067 9.34014C23.2722 8.84329 22.7228 8.59487 22.0583 8.59487C21.3939 8.59487 20.8444 8.84329 20.41 9.34014C19.9755 9.80938 19.7583 10.4028 19.7583 11.1205V28.2203C19.7583 28.5018 19.7917 28.7662 19.8585 29.0137Z" fill="white"/>
<path d="M24.3764 2.18813C24.2886 1.86364 24.143 1.61505 23.9395 1.44236C23.5817 1.13873 22.9556 0.986915 22.0611 0.986915C21.2177 0.986915 20.6044 1.13873 20.2211 1.44236C19.8377 1.74599 19.646 2.28424 19.646 3.05711V3.84378C19.646 4.1724 19.6784 4.4586 19.7431 4.70239C19.6765 4.45636 19.6433 4.16671 19.6433 3.83343V3.04675C19.6433 2.27388 19.8349 1.73563 20.2183 1.43201C20.6016 1.12838 21.215 0.976562 22.0583 0.976562C22.9528 0.976562 23.5789 1.12838 23.9367 1.43201C24.1424 1.60653 24.2889 1.85857 24.3764 2.18813Z" fill="white"/>
<path d="M27.6353 26.737C27.5821 26.5364 27.5555 26.3166 27.5555 26.0776C27.5555 25.36 27.8877 24.7527 28.5522 24.2559C28.9099 24.0074 29.2805 23.8832 29.6639 23.8832C30.2005 23.8832 30.7117 24.1455 31.1972 24.6699C31.9639 25.5256 32.7561 26.1604 33.5739 26.5745C34.4173 26.9885 35.4268 27.1955 36.6023 27.1955C38.5957 27.1127 39.5924 26.2985 39.5924 24.7527C39.5924 24.5346 39.5668 24.3308 39.5155 24.1414C39.5649 24.3279 39.5896 24.5282 39.5896 24.7424C39.5896 26.2881 38.5929 27.1024 36.5996 27.1852C35.424 27.1852 34.4145 26.9782 33.5712 26.5641C32.7534 26.1501 31.9611 25.5152 31.1944 24.6596C30.7089 24.1351 30.1978 23.8729 29.6611 23.8729C29.2777 23.8729 28.9072 23.9971 28.5494 24.2455C27.8849 24.7424 27.5527 25.3496 27.5527 26.0673C27.5527 26.3104 27.5802 26.5336 27.6353 26.737Z" fill="white"/>
<path d="M28.5999 16.7465C28.4403 16.1483 28.3605 15.4771 28.3605 14.733C28.3605 14.0415 28.4545 13.3988 28.6424 12.805L43.0697 27.3669C43.5097 26.5214 43.7297 25.5775 43.7297 24.5353C43.7297 23.0448 43.4103 21.8441 42.7714 20.9332C42.1325 20.0223 41.353 19.3461 40.433 18.9044C39.513 18.4628 38.3629 18.0349 36.9829 17.6209C35.9862 17.3173 35.2068 17.0689 34.6445 16.8756C34.1078 16.6548 33.6606 16.365 33.3028 16.0062C32.945 15.6197 32.7661 15.1229 32.7661 14.5156C32.7661 12.9975 33.7373 12.2384 35.6795 12.2384C36.5996 12.2384 37.4174 12.4178 38.1329 12.7767C38.8741 13.1355 39.4746 13.6185 39.9346 14.2258C40.2924 14.6122 40.7524 14.8054 41.3147 14.8054C41.7747 14.8054 42.1836 14.6536 42.5414 14.35C43.0269 13.936 43.2697 13.4115 43.2697 12.7767C43.2697 12.2246 43.1036 11.7278 42.7714 11.2861C42.0302 10.2648 41.008 9.49195 39.7046 8.9675C38.4013 8.44305 37.0979 8.18083 35.7945 8.18083C34.5167 8.18083 33.3028 8.45686 32.1528 9.00891C31.0283 9.53335 30.1083 10.2924 29.3927 11.2861C28.7027 12.2522 28.3577 13.3977 28.3577 14.7226C28.3577 15.471 28.4385 16.1457 28.5999 16.7465Z" fill="white"/>
<path d="M64.4464 9.34014C64.0119 8.84329 63.4624 8.59487 62.798 8.59487C62.1335 8.59487 61.5841 8.84329 61.1496 9.34014C60.7152 9.80938 60.4979 10.4028 60.4979 11.1205V21.6371C60.4979 23.3208 60.1529 24.5767 59.4629 25.4048C58.7729 26.2053 57.7251 26.6055 56.3195 26.6055C54.9395 26.6055 53.9045 26.2053 53.2144 25.4048C52.5244 24.5767 52.1794 23.3208 52.1794 21.6371V11.1205C52.1794 10.4028 51.9622 9.80938 51.5277 9.34014C51.0933 8.84329 50.5438 8.59487 49.8794 8.59487C49.2149 8.59487 48.6654 8.84329 48.231 9.34014C47.7965 9.80938 47.5793 10.4028 47.5793 11.1205V21.6371C47.5793 24.6182 48.3332 26.9506 49.841 28.6343C51.3488 30.3181 53.5083 31.16 56.3195 31.16C59.1307 31.16 61.2902 30.3181 62.798 28.6343C64.3314 26.9506 65.098 24.6182 65.098 21.6371V11.1205C65.098 10.4028 64.8808 9.80938 64.4464 9.34014Z" fill="white"/>
<path d="M28.6692 12.7947L43.1018 27.3619C42.9701 27.6155 42.8187 27.8602 42.6475 28.0961C41.9064 29.0898 40.9481 29.8488 39.7725 30.3733C38.6224 30.8977 37.4341 31.16 36.2074 31.16C34.5207 31.16 32.949 30.8563 31.4923 30.2491C30.0356 29.6418 28.8472 28.6619 27.9272 27.3094C27.6972 26.9782 27.5822 26.5641 27.5822 26.0673C27.5822 25.3496 27.9144 24.7424 28.5789 24.2455C28.9367 23.9971 29.3072 23.8729 29.6906 23.8729C30.2273 23.8729 30.7384 24.1351 31.224 24.6596C31.9906 25.5152 32.7829 26.1501 33.6007 26.5641C34.444 26.9782 35.4535 27.1852 36.6291 27.1852C38.6224 27.1024 39.6191 26.2881 39.6191 24.7424C39.6191 23.9419 39.2741 23.3346 38.5841 22.9206C37.9197 22.5066 36.8719 22.0925 35.4407 21.6785C33.9585 21.2368 32.7445 20.7952 31.799 20.3536C30.8789 19.9119 30.0739 19.2495 29.3839 18.3662C28.7195 17.4553 28.3872 16.2408 28.3872 14.7226C28.3872 14.0311 28.4812 13.3885 28.6692 12.7947Z" fill="white"/>
<path d="M3.9396 30.2491C3.17335 29.9296 2.48134 29.5071 1.86359 28.9815L4.91305 25.835C5.28572 26.1267 5.66403 26.3697 6.04798 26.5641C6.89133 26.9782 7.9008 27.1852 9.07638 27.1852C11.0698 27.1024 12.0664 26.2881 12.0664 24.7424C12.0664 23.9419 11.7214 23.3346 11.0314 22.9206C10.4998 22.5894 9.7229 22.2581 8.7006 21.9269L12.0138 18.5083C12.3334 18.6391 12.6321 18.7711 12.9098 18.9044C13.8298 19.3461 14.6093 20.0223 15.2482 20.9332C15.8871 21.8441 16.2065 23.0448 16.2065 24.5353C16.2065 25.8879 15.836 27.0748 15.0948 28.0961C14.3537 29.0898 13.3954 29.8488 12.2198 30.3733C11.0698 30.8977 9.8814 31.16 8.6547 31.16C6.968 31.16 5.3963 30.8563 3.9396 30.2491Z" fill="white"/>
<path d="M24.3879 28.2203C24.3879 28.938 24.1707 29.5452 23.7362 30.0421C23.3018 30.5113 22.7523 30.7459 22.0878 30.7459C21.4234 30.7459 20.8739 30.5113 20.4395 30.0421C20.005 29.5452 19.7878 28.938 19.7878 28.2203V11.1205C19.7878 10.4028 20.005 9.80938 20.4395 9.34014C20.8739 8.84329 21.4234 8.59487 22.0878 8.59487C22.7523 8.59487 23.3018 8.84329 23.7362 9.34014C24.1707 9.80938 24.3879 10.4028 24.3879 11.1205V28.2203Z" fill="white"/>
<path d="M22.0495 5.90362C21.1806 5.90362 20.5672 5.7518 20.2095 5.44818C19.8517 5.14455 19.6728 4.6063 19.6728 3.83343V3.04675C19.6728 2.27388 19.8645 1.73563 20.2478 1.43201C20.6311 1.12838 21.2445 0.976562 22.0878 0.976562C22.9823 0.976562 23.6084 1.12838 23.9662 1.43201C24.324 1.73563 24.5029 2.27388 24.5029 3.04675V3.83343C24.5029 4.6339 24.3112 5.18595 23.9279 5.48958C23.5701 5.76561 22.944 5.90362 22.0495 5.90362Z" fill="white"/>
</svg>
