<?xml version="1.0" encoding="UTF-8"?>
<svg width="18px" height="24px" viewBox="0 0 18 24" version="1.1" xmlns="http://www.w3.org/2000/svg" xmlns:xlink="http://www.w3.org/1999/xlink">
    <!-- Generator: Sketch 53.2 (72643) - https://sketchapp.com -->
    <title>Regular/lightbulb</title>
    <desc>Created with Sketch.</desc>
    <defs>
        <path d="M12.75,20.0625 L12.75,21.375 C12.75,21.8647969 12.436875,22.2812812 12,22.4357344 L12,22.875 C12,23.4963281 11.4963281,24 10.875,24 L7.125,24 C6.50367188,24 6,23.4963281 6,22.875 L6,22.4357344 C5.563125,22.2812812 5.25,21.8647969 5.25,21.375 L5.25,20.0625 C5.25,19.7518594 5.50185938,19.5 5.8125,19.5 L12.1875,19.5 C12.4981406,19.5 12.75,19.7518594 12.75,20.0625 Z M6,8.25 C6,6.59578125 7.34578125,5.25 9,5.25 C9.41423437,5.25 9.75,4.9141875 9.75,4.5 C9.75,4.0858125 9.41423437,3.75 9,3.75 C6.51867187,3.75 4.5,5.76867187 4.5,8.25 C4.5,8.6641875 4.8358125,9 5.25,9 C5.6641875,9 6,8.6641875 6,8.25 Z M9,2.25 C12.3156562,2.25 15,4.93378125 15,8.25 C15,11.8875938 13.2476719,11.0848594 11.2040625,15.75 L6.7959375,15.75 C4.74928125,11.0779688 3,11.9001094 3,8.25 C3,4.93429687 5.68378125,2.25 9,2.25 L9,2.25 Z M9,0 C4.44398438,0 0.75,3.69389062 0.75,8.25 C0.75,13.0186406 3.17329688,12.5409844 4.9929375,17.2815937 C5.15934375,17.7151406 5.57746875,18 6.0418125,18 L11.9581406,18 C12.4224844,18 12.8406094,17.7150938 13.0070156,17.2815937 C14.8267031,12.5409844 17.25,13.0186406 17.25,8.25 C17.25,3.69389062 13.5560156,0 9,0 Z" id="path-1"></path>
    </defs>
    <g id="Page-1" stroke="none" stroke-width="1" fill="none" fill-rule="evenodd">
        <g id="7-Sign-In" transform="translate(-97.000000, -464.000000)">
            <g id="Regular/lightbulb" transform="translate(97.000000, 464.000000)">
                <mask id="mask-2" fill="white">
                    <use xlink:href="#path-1"></use>
                </mask>
                <use id="Mask" fill="#7B7B7B" xlink:href="#path-1"></use>
            </g>
        </g>
    </g>
</svg>