<?xml version="1.0" encoding="UTF-8"?>
<svg width="18px" height="24px" viewBox="0 0 18 24" version="1.1" xmlns="http://www.w3.org/2000/svg" xmlns:xlink="http://www.w3.org/1999/xlink">
    <!-- Generator: Sketch 53.2 (72643) - https://sketchapp.com -->
    <title>Solid/lightbulb</title>
    <desc>Created with Sketch.</desc>
    <defs>
        <path d="M12.75,20.0625 L12.75,21.375 C12.75,21.8647969 12.436875,22.2812812 12,22.4357344 L12,22.875 C12,23.4963281 11.4963281,24 10.875,24 L7.125,24 C6.50367188,24 6,23.4963281 6,22.875 L6,22.4357344 C5.563125,22.2812812 5.25,21.8647969 5.25,21.375 L5.25,20.0625 C5.25,19.7518594 5.50185938,19.5 5.8125,19.5 L12.1875,19.5 C12.4981406,19.5 12.75,19.7518594 12.75,20.0625 Z M6.04185937,18 C5.57746875,18 5.15939063,17.7150938 4.99298437,17.2815469 C3.17329688,12.5409844 0.75,13.0186406 0.75,8.25 C0.75,3.69389062 4.44398438,0 9,0 C13.5560156,0 17.25,3.69389062 17.25,8.25 C17.25,13.0186406 14.8267031,12.5409844 13.0070625,17.2815469 C12.8406562,17.7150938 12.4225312,18 11.9581875,18 L6.04185937,18 Z M5.25,8.25 C5.25,6.18225 6.93225,4.5 9,4.5 C9.41423437,4.5 9.75,4.1641875 9.75,3.75 C9.75,3.3358125 9.41423437,3 9,3 C6.10514062,3 3.75,5.35514062 3.75,8.25 C3.75,8.6641875 4.0858125,9 4.5,9 C4.9141875,9 5.25,8.6641875 5.25,8.25 Z" id="path-1"></path>
    </defs>
    <g id="Page-1" stroke="none" stroke-width="1" fill="none" fill-rule="evenodd">
        <g id="Default-comment-view" transform="translate(-97.000000, -464.000000)">
            <g id="Solid/lightbulb" transform="translate(97.000000, 464.000000)">
                <mask id="mask-2" fill="white">
                    <use xlink:href="#path-1"></use>
                </mask>
                <use id="Mask" fill="#D08C00" xlink:href="#path-1"></use>
            </g>
        </g>
    </g>
</svg>