<svg width="16" height="21" viewBox="0 0 16 21" fill="none" xmlns="http://www.w3.org/2000/svg">
<path d="M12.9978 7.16084L7.99983 13.0347L3.00183 7.16084C2.91253 7.05568 2.79266 6.99681 2.66783 6.99681C2.543 6.99681 2.42313 7.05568 2.33383 7.16084C2.29059 7.21192 2.25624 7.27288 2.23279 7.34016C2.20934 7.40744 2.19727 7.47969 2.19727 7.55267C2.19727 7.62565 2.20934 7.6979 2.23279 7.76518C2.25624 7.83246 2.29059 7.89343 2.33383 7.9445L7.65083 14.1945C7.74421 14.3042 7.86944 14.3656 7.99983 14.3656C8.13023 14.3656 8.25546 14.3042 8.34883 14.1945L13.6658 7.94571C13.7094 7.89459 13.744 7.83348 13.7676 7.76597C13.7912 7.69847 13.8034 7.62594 13.8034 7.55267C13.8034 7.4794 13.7912 7.40687 13.7676 7.33937C13.744 7.27186 13.7094 7.21075 13.6658 7.15963C13.5765 7.05448 13.4567 6.99561 13.3318 6.99561C13.207 6.99561 13.0871 7.05448 12.9978 7.15963V7.16084Z" fill="white"/>
</svg>
